<?xml version="1.0" encoding="UTF-8"?>
<svg id="_레이어_1" data-name="레이어 1" xmlns="http://www.w3.org/2000/svg" viewBox="0 0 43 28">
  <defs>
    <style>
      .cls-1 {
        fill: #333;
      }

      .cls-1, .cls-2 {
        stroke-width: 0px;
      }

      .cls-2 {
        fill: #0066b3;
      }
    </style>
  </defs>
  <g>
    <path class="cls-1" d="M26.51,8.02v-.3s.02-.06.06-.06h1.64s.06.02.06.06v.3s-.02.06-.06.06h-.6v1.84s-.02.06-.06.06h-.34s-.06-.02-.06-.06v-1.84h-.59s-.06-.02-.06-.06Z"/>
    <path class="cls-1" d="M28.61,9.92v-2.2s.02-.06.06-.06h1.53s.06.02.06.06v.3s-.02.06-.06.06h-1.13v.47h.86s.07.02.07.06v.3s-.02.06-.07.06h-.86v.57h1.16s.07.02.07.06v.3s-.02.06-.07.06h-1.56s-.06-.02-.06-.06Z"/>
    <path class="cls-1" d="M30.62,7.73s0-.03.02-.05c.01-.01.03-.02.05-.02h.32s.07.02.07.07v1.83h.91s.03,0,.05.02c.01.01.02.03.02.05v.28s-.02.07-.07.07h-1.31s-.07-.02-.07-.07v-2.19Z"/>
    <path class="cls-1" d="M32.42,9.92v-2.2s.02-.06.06-.06h1.53s.06.02.06.06v.3s-.02.06-.06.06h-1.13v.47h.86s.07.02.07.06v.3s-.02.06-.07.06h-.86v.57h1.16s.07.02.07.06v.3s-.02.06-.07.06h-1.56s-.06-.02-.06-.06Z"/>
    <path class="cls-1" d="M34.38,9.63s-.03-.04-.04-.06c0-.02,0-.04.02-.06l.21-.21s.04-.02.05-.02c.02,0,.04.02.05.03.03.03.07.06.1.1.04.03.08.06.13.09.04.03.09.05.15.06.05.02.11.02.17.02.06,0,.12,0,.17-.03.05-.02.09-.04.12-.07.03-.03.06-.06.08-.1.02-.04.03-.07.03-.11,0-.05-.02-.09-.05-.13-.03-.03-.07-.06-.11-.09-.04-.02-.09-.04-.14-.06-.05-.02-.1-.03-.14-.04-.25-.08-.45-.17-.58-.28-.13-.11-.2-.25-.2-.43,0-.1.02-.18.06-.26.04-.08.1-.15.17-.21.07-.06.16-.1.27-.13.1-.03.22-.05.34-.05.14,0,.27.03.4.1.13.06.24.14.33.24.04.04.04.08,0,.12l-.17.18s-.04.02-.06.02c-.02,0-.04-.02-.06-.04-.03-.02-.05-.04-.09-.07-.03-.03-.07-.05-.11-.07-.04-.02-.08-.04-.12-.05-.04-.01-.09-.02-.13-.02-.04,0-.08,0-.12,0-.04,0-.08.02-.12.04-.03.02-.06.04-.09.08-.02.03-.03.08-.03.13,0,.04.01.07.03.1.02.03.05.05.09.08.04.02.09.04.14.06.06.02.12.04.18.06.11.03.21.07.3.1.09.04.18.09.25.14.07.06.13.12.17.2.04.08.06.17.06.28s-.02.21-.07.3c-.05.09-.11.16-.19.23-.08.06-.17.11-.28.14-.11.03-.21.05-.33.05-.16,0-.32-.04-.47-.11-.15-.07-.28-.16-.39-.28Z"/>
    <path class="cls-1" d="M38.71,8.82c0,.16-.03.32-.09.46-.06.15-.15.27-.26.38-.11.11-.24.19-.38.26-.15.06-.3.09-.47.09s-.32-.03-.46-.09c-.15-.06-.27-.15-.38-.26-.11-.11-.19-.23-.25-.38-.06-.15-.09-.3-.09-.46s.03-.32.09-.47c.06-.15.15-.27.25-.38.11-.11.23-.19.38-.26.15-.06.3-.09.46-.09s.32.03.47.09c.15.06.27.15.38.26.11.11.19.23.26.38.06.15.09.3.09.47ZM38.25,8.82c0-.11-.02-.21-.06-.3-.04-.09-.09-.17-.15-.24-.07-.07-.14-.12-.23-.16-.09-.04-.19-.06-.29-.06s-.2.02-.29.06c-.09.04-.17.09-.23.16-.07.07-.12.15-.15.24-.04.09-.05.19-.05.3s.02.2.05.29c.04.09.09.17.15.24.07.07.14.12.23.16.09.04.19.06.29.06s.2-.02.29-.06c.09-.04.17-.09.23-.16.07-.07.12-.15.15-.24.04-.09.06-.19.06-.29Z"/>
    <path class="cls-1" d="M39.11,9.92v-2.2s.02-.06.06-.06h1.5s.06.02.06.06v.3s-.02.06-.06.06h-1.1v.61h.84s.06.02.06.06v.29s-.02.06-.06.06h-.84v.8s-.02.06-.06.06h-.33s-.06-.02-.06-.06Z"/>
    <path class="cls-1" d="M40.88,8.02v-.3s.02-.06.06-.06h1.64s.06.02.06.06v.3s-.02.06-.06.06h-.6v1.84s-.02.06-.06.06h-.34s-.06-.02-.06-.06v-1.84h-.59s-.06-.02-.06-.06Z"/>
  </g>
  <g>
    <path class="cls-2" d="M20.82,17.39h2.75c-1.36,3.51-4.76,5.99-8.75,5.99-1.31,0-2.55-.27-3.68-.75.51.09,1.05.14,1.59.14,3.64,0,6.77-2.22,8.09-5.38Z"/>
    <path class="cls-2" d="M12.73,5.23c-.54,0-1.07.05-1.59.14,1.13-.48,2.37-.75,3.68-.75,3.99,0,7.39,2.48,8.75,5.99h-2.75c-1.33-3.16-4.45-5.38-8.09-5.38Z"/>
    <path class="cls-2" d="M.35,14c0,6.62,5.38,12,12,12,2.17,0,4.29-.58,6.14-1.69,0,0,.57-.4,1.09-1.07-.12.08-.25.16-.38.23-.48.25-.92.39-.92.39-1.15.42-2.35.63-3.58.63-5.78,0-10.49-4.71-10.49-10.49S8.91,3.51,14.7,3.51c1.23,0,2.44.21,3.59.63,0,0,0,0,0,0h0s1.61.79,1.61.79l.14.07c-.05-.08-.12-.15-.18-.23-.53-.6-1.31-1.05-1.37-1.09h0c-1.85-1.11-3.98-1.7-6.15-1.7C5.74,2,.35,7.38.35,14Z"/>
  </g>
  <g>
    <path class="cls-1" d="M13.4,13.27h1.4v.61h-2.17v-2.5h2.03v.61h-1.27v.34h1.18v.6h-1.18v.34ZM13.62,15.99h3.72v.61h-4.53v-1.52h3.61v-.3h-3.61v-.61h4.42v1.52h-3.6v.3ZM15.28,11.33h.75v2.65h-.75v-1h-.53v-.7h.53v-.95ZM17.22,13.97h-.78v-2.67h.78v2.67Z"/>
    <path class="cls-1" d="M19.65,15.64h1.35v.74h-2.13v-2.94h1.11v-1.3h-1.11v-.74h1.88v2.78h-1.11v1.47ZM21.45,11.33h.79v5.22h-.79v-2.37h-.51v-.78h.51v-2.07ZM23.47,11.3v5.31h-.8v-5.31h.8Z"/>
    <path class="cls-1" d="M25.39,14.46l-.5-.63c.61-.21,1.11-.54,1.5-.99.39-.45.64-.97.75-1.57l.85.14c-.04.27-.12.54-.25.82.59.68,1.35,1.15,2.29,1.39l-.44.66c-.87-.23-1.62-.68-2.25-1.34-.25.35-.54.65-.88.92-.34.26-.7.47-1.07.6ZM27.88,15.66h2.12v.75h-5.08v-.75h2.1v-1.46h.86v1.46Z"/>
    <path class="cls-1" d="M31.16,15.66h5.08v.75h-5.08v-.75ZM35.02,13.76h1.01v.74h-4.67v-.74h.84v-1.34h.84v1.34h1.14l.34-1.34h.85l-.34,1.34ZM31.42,11.39h4.56v.75h-4.56v-.75Z"/>
    <path class="cls-1" d="M37.4,15.66h5.08v.74h-5.08v-.74ZM42.23,12.1h-3.75v.66h3.75v.7h-3.75v.71h3.8v.71h-4.62v-3.49h4.56v.71Z"/>
  </g>
</svg>