<?xml version="1.0" encoding="UTF-8"?>
<svg id="_레이어_1" data-name="레이어 1" xmlns="http://www.w3.org/2000/svg" viewBox="0 0 45 28">
  <defs>
    <style>
      .cls-1 {
        fill: #333;
      }

      .cls-1, .cls-2 {
        stroke-width: 0px;
      }

      .cls-2 {
        fill: #0066b3;
      }
    </style>
  </defs>
  <g>
    <g>
      <path class="cls-2" d="M20.74,17.39h2.75c-1.36,3.51-4.76,5.99-8.75,5.99-1.31,0-2.55-.27-3.68-.75.51.09,1.05.14,1.59.14,3.64,0,6.77-2.22,8.09-5.38Z"/>
      <path class="cls-2" d="M12.64,5.23c-.54,0-1.07.05-1.59.14,1.13-.48,2.37-.75,3.68-.75,3.99,0,7.39,2.48,8.75,5.99h-2.75c-1.33-3.16-4.45-5.38-8.09-5.38Z"/>
      <path class="cls-2" d="M.27,14c0,6.62,5.38,12,12,12,2.17,0,4.29-.58,6.14-1.69,0,0,.57-.4,1.09-1.07-.12.08-.25.16-.38.23-.48.25-.92.39-.92.39-1.15.42-2.35.63-3.58.63-5.78,0-10.49-4.71-10.49-10.49S8.82,3.51,14.61,3.51c1.23,0,2.44.21,3.59.63,0,0,0,0,0,0h0s1.61.79,1.61.79l.14.07c-.05-.08-.12-.15-.18-.23-.53-.6-1.31-1.05-1.37-1.09h0c-1.85-1.11-3.98-1.7-6.15-1.7C5.65,2,.27,7.38.27,14Z"/>
    </g>
    <g>
      <path class="cls-1" d="M12.3,12.4v-.6c0-.08.04-.12.12-.12h3.3c.08,0,.13.04.13.12v.6c0,.08-.04.13-.13.13h-1.21v3.7c0,.08-.04.13-.12.13h-.68c-.08,0-.12-.04-.12-.13v-3.7h-1.18c-.08,0-.12-.04-.12-.13Z"/>
      <path class="cls-1" d="M16.52,16.22v-4.42c0-.08.04-.13.12-.13h3.08c.08,0,.13.04.13.13v.61c0,.08-.04.13-.13.13h-2.28v.95h1.74c.09,0,.14.04.14.13v.6c0,.08-.05.13-.14.13h-1.74v1.15h2.33c.09,0,.13.04.13.13v.6c0,.08-.04.13-.13.13h-3.13c-.08,0-.12-.04-.12-.13Z"/>
      <path class="cls-1" d="M20.56,11.81s.01-.07.04-.1c.03-.03.06-.04.11-.04h.64c.09,0,.13.05.14.14v3.68h1.84s.07.01.1.04c.03.03.04.06.04.11v.57c0,.09-.05.13-.14.14h-2.62c-.09,0-.14-.05-.14-.14v-4.4Z"/>
      <path class="cls-1" d="M24.17,16.22v-4.42c0-.08.04-.13.12-.13h3.08c.08,0,.13.04.13.13v.61c0,.08-.04.13-.13.13h-2.28v.95h1.74c.09,0,.14.04.14.13v.6c0,.08-.05.13-.14.13h-1.74v1.15h2.33c.09,0,.13.04.13.13v.6c0,.08-.04.13-.13.13h-3.13c-.08,0-.12-.04-.12-.13Z"/>
      <path class="cls-1" d="M28.11,15.64s-.06-.08-.08-.11c-.02-.04,0-.08.04-.13l.42-.42s.07-.05.11-.03c.04.01.07.03.11.07.06.06.13.13.21.19.08.07.16.12.25.18.09.05.19.09.29.13.1.03.22.05.33.05.13,0,.24-.02.33-.05.1-.03.18-.08.25-.14.07-.06.12-.12.16-.2.04-.07.05-.15.05-.23,0-.1-.03-.19-.09-.25-.06-.07-.14-.13-.22-.18-.09-.05-.18-.09-.29-.12-.1-.03-.2-.06-.28-.08-.51-.15-.89-.34-1.16-.56-.27-.22-.4-.51-.4-.87,0-.19.04-.37.12-.53.08-.16.2-.3.35-.41.15-.12.33-.2.54-.27.21-.06.44-.09.69-.09.28,0,.54.07.8.2.25.13.48.29.66.48.08.08.07.16,0,.25l-.35.37s-.08.05-.12.03c-.04-.01-.08-.04-.12-.07-.05-.04-.11-.09-.17-.14-.07-.05-.14-.1-.21-.14-.08-.04-.16-.08-.25-.11-.09-.03-.18-.04-.27-.04-.08,0-.16,0-.25.02-.09.01-.16.04-.23.07-.07.04-.13.09-.17.15-.05.07-.07.15-.07.26,0,.08.02.15.07.21.04.06.11.11.19.15.08.04.18.08.29.12.11.04.23.08.37.11.21.06.42.13.6.21.19.08.35.17.49.29.14.11.25.25.34.4.08.16.13.34.13.56s-.05.42-.14.59c-.1.18-.23.33-.39.46-.16.13-.35.22-.56.29-.21.07-.43.1-.66.1-.33,0-.64-.07-.94-.21-.3-.14-.56-.33-.77-.56Z"/>
      <path class="cls-1" d="M36.82,14.01c0,.33-.06.64-.19.93-.13.29-.3.55-.52.76-.22.22-.47.39-.77.51-.29.13-.61.19-.94.19s-.64-.06-.93-.19c-.29-.13-.55-.3-.76-.51-.22-.22-.39-.47-.51-.76-.12-.29-.19-.6-.19-.93s.06-.65.19-.94c.12-.29.29-.55.51-.76.22-.22.47-.39.76-.51.29-.13.6-.19.93-.19s.64.06.94.19c.29.13.55.3.77.51.22.22.39.47.52.76.13.29.19.61.19.94ZM35.89,14.01c0-.21-.04-.41-.11-.6-.08-.18-.18-.35-.31-.48-.13-.14-.29-.24-.47-.32-.18-.08-.38-.12-.59-.12s-.4.04-.59.12c-.18.08-.34.19-.47.32-.13.14-.24.3-.31.48-.07.18-.11.38-.11.6s.04.41.11.59c.07.18.18.35.31.48.13.14.29.24.47.32.18.08.38.12.59.12s.41-.04.59-.12c.18-.08.34-.19.47-.32.13-.14.24-.3.31-.48.08-.18.11-.38.11-.59Z"/>
      <path class="cls-1" d="M37.61,16.22v-4.42c0-.08.04-.13.12-.13h3.01c.08,0,.13.04.13.13v.61c0,.08-.04.13-.13.13h-2.22v1.23h1.69c.08,0,.12.04.12.13v.58c0,.08-.04.13-.12.13h-1.69v1.62c0,.08-.04.13-.13.13h-.67c-.08,0-.12-.04-.12-.13Z"/>
      <path class="cls-1" d="M41.18,12.4v-.6c0-.08.04-.12.12-.12h3.3c.08,0,.13.04.13.12v.6c0,.08-.04.13-.13.13h-1.21v3.7c0,.08-.04.13-.12.13h-.68c-.08,0-.12-.04-.12-.13v-3.7h-1.18c-.08,0-.12-.04-.12-.13Z"/>
    </g>
  </g>
  <g>
    <path class="cls-1" d="M30.43,8.54h.69v.3h-1.07v-1.23h1v.3h-.62v.17h.58v.29h-.58v.17ZM30.54,9.88h1.83v.3h-2.23v-.75h1.77v-.15h-1.77v-.3h2.17v.75h-1.77v.15ZM31.35,7.59h.37v1.3h-.37v-.49h-.26v-.34h.26v-.47ZM32.31,8.89h-.38v-1.31h.38v1.31Z"/>
    <path class="cls-1" d="M33.51,9.71h.66v.36h-1.04v-1.45h.54v-.64h-.54v-.37h.92v1.37h-.54v.72ZM34.39,7.59h.39v2.57h-.39v-1.17h-.25v-.38h.25v-1.02ZM35.38,7.57v2.61h-.39v-2.61h.39Z"/>
    <path class="cls-1" d="M36.33,9.13l-.24-.31c.3-.1.54-.27.74-.49.19-.22.32-.48.37-.77l.42.07c-.02.13-.06.27-.12.4.29.34.67.56,1.13.68l-.22.32c-.43-.11-.8-.33-1.11-.66-.12.17-.26.32-.43.45-.17.13-.34.23-.53.3ZM37.55,9.72h1.04v.37h-2.5v-.37h1.03v-.72h.42v.72Z"/>
    <path class="cls-1" d="M39.17,9.72h2.5v.37h-2.5v-.37ZM41.07,8.79h.5v.36h-2.3v-.36h.41v-.66h.41v.66h.56l.17-.66h.42l-.17.66ZM39.29,7.62h2.24v.37h-2.24v-.37Z"/>
    <path class="cls-1" d="M42.24,9.72h2.5v.37h-2.5v-.37ZM44.61,7.97h-1.84v.33h1.84v.34h-1.84v.35h1.87v.35h-2.27v-1.72h2.24v.35Z"/>
  </g>
</svg>