<?xml version="1.0" encoding="UTF-8"?>
<svg id="_레이어_1" data-name="레이어 1" xmlns="http://www.w3.org/2000/svg" width="160" height="50" viewBox="0 0 160 50">
  <defs>
    <style>
      .cls-1 {
        fill: #1c1c1b;
      }

      .cls-1, .cls-2, .cls-3 {
        stroke-width: 0px;
      }

      .cls-2 {
        fill: #577fbb;
      }

      .cls-2, .cls-3 {
        fill-rule: evenodd;
      }

      .cls-3 {
        fill: #e31c2c;
      }
    </style>
  </defs>
  <g>
    <path class="cls-1" d="M103.56,33.39v10.23h-2.89v-9.45c-.03-1.59-.3-2.26-1.46-2.26-1.04,0-1.64.56-3.32,1.96v9.75h-2.8v-9.45c.03-1.68-.46-2.26-1.49-2.26-.97,0-1.64.53-3.32,1.96v9.75h-2.89v-13.64h2.41l.15,2.04c1.52-1.57,3.04-2.4,4.69-2.4s2.68.78,3.07,2.29c1.52-1.54,2.98-2.29,4.57-2.29,2.13,0,3.29,1.31,3.29,3.77Z"/>
    <path class="cls-1" d="M118.11,36.83c0,5.2-1.58,7.15-5.88,7.15s-5.94-1.96-5.94-7.15,1.64-7.21,5.94-7.21,5.88,1.98,5.88,7.21ZM109.37,36.83c0,3.77.64,4.89,2.86,4.89s2.86-1.12,2.86-4.89-.64-4.92-2.86-4.92-2.86,1.09-2.86,4.92Z"/>
    <path class="cls-1" d="M132.36,36.75c0,4.58-1.13,7.21-5.6,7.21-1.7,0-4.32-.34-5.81-.98v-18.92h2.92v4.89c0,1.15-.09,2.04-.3,2.99,1.28-1.54,2.86-2.32,4.41-2.32,2.92,0,4.38,2.01,4.38,7.13ZM129.31,36.75c0-3.55-.34-4.78-2.47-4.78-1.07,0-1.92.73-3.01,1.79l.03,7.57c.91.28,2.01.39,2.83.36,1.89-.03,2.62-1.26,2.62-4.95Z"/>
    <path class="cls-1" d="M137.44,24.17c.55,0,.82.31.82.78v1.57c0,.53-.27.81-.82.81h-1.4c-.55,0-.82-.28-.82-.81v-1.57c0-.47.27-.78.82-.78h1.4ZM135.31,43.62v-13.64h2.89v13.64h-2.89Z"/>
    <path class="cls-1" d="M144.66,39.68c0,1.15.49,1.73,1.43,1.73h1l.37,2.1c-.55.25-1.86.36-2.53.36-1.95,0-3.17-1.26-3.17-3.58v-16.24h2.92l-.03,15.62Z"/>
    <path class="cls-1" d="M159.45,41.36l.27,1.79c-1.31.59-3.47.81-4.93.81-4.32,0-5.97-1.93-5.97-7.18s1.77-7.15,5.75-7.15,5.45,1.59,5.42,4.58c.03,2.46-1,3.91-3.01,3.91h-5.05c.21,2.96,1.13,3.58,3.26,3.58,1.13,0,2.86-.17,4.26-.34ZM151.9,36.02h4.26c.85,0,.91-.98.91-1.82.03-1.65-.49-2.29-2.34-2.29-2.13,0-2.77.87-2.83,4.11Z"/>
  </g>
  <g>
    <g>
      <path class="cls-1" d="M61.74,12.98v7.32h-2.93v-6.41c0-.89-.18-1.15-.67-1.15s-.95.26-1.7.81v6.74h-2.93V6.46h2.93l.02,3.38c0,.69-.08,1.34-.16,1.9,1.03-.95,2.12-1.46,3.12-1.46,1.5,0,2.31.95,2.31,2.71Z"/>
      <path class="cls-1" d="M71.07,13.85v6.45h-2.31l-.26-1.31c-.53.75-1.44,1.54-2.85,1.54-1.48,0-2.69-.99-2.69-2.81v-.99c0-1.56.97-2.47,2.55-2.47h2.65v-.44c-.02-.99-.28-1.27-1.11-1.27s-2.1.06-3.4.16l-.28-1.98c1.19-.26,3.2-.47,4.37-.47,2.15,0,3.32.83,3.32,3.58ZM68.16,17.67v-1.64h-1.66c-.49.02-.67.38-.67.93v.38c0,.69.24,1.01.77,1.01.45,0,1.03-.24,1.56-.67Z"/>
      <path class="cls-1" d="M80.9,12.98v7.32h-2.93v-6.41c0-.89-.18-1.15-.67-1.15s-.95.3-1.74.85l.02,6.7h-2.93v-9.75h2.31l.28,1.44c1.05-1.11,2.23-1.72,3.34-1.72,1.5,0,2.31.95,2.31,2.71Z"/>
      <path class="cls-1" d="M90.92,15.52c0,3.88-1.03,5.04-3.03,5.04-.97,0-1.88-.24-2.55-.83.04.65.06,1.31.04,1.98v2.35h-2.91v-13.51h2.35l.22,1.42c.53-.97,1.78-1.68,3.06-1.68,2.02,0,2.81,1.92,2.81,5.22ZM87.91,15.52c0-2.35-.3-2.93-1.03-2.93-.61,0-.99.36-1.5.95v4.49c.43.18.81.36,1.4.36.83,0,1.13-.43,1.13-2.87Z"/>
      <path class="cls-1" d="M100.01,13.85v6.45h-2.31l-.26-1.31c-.53.75-1.44,1.54-2.85,1.54-1.48,0-2.69-.99-2.69-2.81v-.99c0-1.56.97-2.47,2.55-2.47h2.65v-.44c-.02-.99-.28-1.27-1.11-1.27s-2.1.06-3.4.16l-.28-1.98c1.19-.26,3.2-.47,4.37-.47,2.15,0,3.32.83,3.32,3.58ZM97.11,17.67v-1.64h-1.66c-.49.02-.67.38-.67.93v.38c0,.69.24,1.01.77,1.01.45,0,1.03-.24,1.56-.67Z"/>
      <path class="cls-1" d="M108.75,10.65l-.2,1.88c-1.05-.02-2.12-.04-3.1-.04-1.15,0-1.34,0-1.34.65,0,.59.22.61.97.87l1.94.67c1.38.47,2.06,1.15,2.06,2.85,0,2.41-1.09,2.99-3.78,2.99-.69,0-2.23-.02-3.9-.34l.2-1.9c.47.04,1.7.04,2.79.04,1.56,0,1.86-.1,1.86-.73,0-.59-.28-.63-1.07-.91l-1.88-.65c-1.64-.53-2.02-1.42-2.02-2.97,0-2.04.89-2.79,3.56-2.79,1.23.02,2.91.16,3.91.38Z"/>
      <path class="cls-1" d="M117.45,10.65l-.2,1.88c-1.05-.02-2.12-.04-3.1-.04-1.15,0-1.34,0-1.34.65,0,.59.22.61.97.87l1.94.67c1.38.47,2.06,1.15,2.06,2.85,0,2.41-1.09,2.99-3.78,2.99-.69,0-2.23-.02-3.9-.34l.2-1.9c.47.04,1.7.04,2.79.04,1.56,0,1.86-.1,1.86-.73,0-.59-.28-.63-1.07-.91l-1.88-.65c-1.64-.53-2.02-1.42-2.02-2.97,0-2.04.89-2.79,3.56-2.79,1.23.02,2.91.16,3.91.38Z"/>
    </g>
    <g>
      <path class="cls-3" d="M.04,15.91C.57,10.49,7.69,6.02,14.59,6.02c5.03,0,9.37,1.33,12.21,5.22.07.1-.06.22-.15.14-1.92-1.59-4.56-2.25-6.28-2.14-1.04.07-5.99-.09-7.89,6.18-.98,3.24-3.76,5.45-7.15,5.45S-.34,18.66.04,15.91H.04Z"/>
      <path class="cls-2" d="M43.96,11.6c-.23,5.44-7.09,10.3-13.98,10.68-5.02.28-9.43-.81-12.48-4.54-.08-.1.05-.22.15-.15,2,1.48,4.68,2,6.39,1.79,1.03-.12,5.98-.24,7.54-6.6.8-3.29,3.45-5.65,6.84-5.83,3.39-.19,5.78,1.89,5.55,4.66h0Z"/>
    </g>
  </g>
</svg>