<?xml version="1.0" encoding="UTF-8"?>
<svg id="_레이어_1" data-name="레이어 1" xmlns="http://www.w3.org/2000/svg" width="160" height="50" viewBox="0 0 160 50">
  <defs>
    <style>
      .cls-1 {
        fill: #717071;
      }

      .cls-1, .cls-2, .cls-3, .cls-4 {
        stroke-width: 0px;
      }

      .cls-2 {
        fill: #c8c9ca;
      }

      .cls-3 {
        fill: #004da0;
      }

      .cls-4 {
        fill: #9e9e9f;
      }
    </style>
  </defs>
  <g>
    <g>
      <path class="cls-3" d="M18.17,21.23l-3.65,6.63h-2.05l3.65-6.63h2.05Z"/>
      <path class="cls-3" d="M22.74,26.33l2.81-5.1h2.03l-3.41,6.2c-.07.12-.16.22-.29.31-.13.08-.25.12-.37.12h-2.61l-.21-5.1-2.8,5.1h-2.03l3.42-6.22c.07-.12.16-.22.29-.3.12-.08.25-.12.37-.12h2.61l.21,5.1Z"/>
      <path class="cls-3" d="M30.99,27.86h-5.9l1.28-1.19c.17-.15.3-.25.37-.28.07-.03.19-.05.36-.05h4.34c.15,0,.31-.05.47-.16.16-.1.29-.23.37-.39.08-.15.1-.28.06-.39-.05-.1-.15-.16-.3-.16h-3.34c-.33,0-.61-.04-.85-.13-.24-.09-.42-.22-.53-.4-.12-.18-.17-.39-.15-.64.01-.25.11-.53.29-.85.18-.32.39-.6.65-.85.26-.25.54-.46.85-.64.31-.18.63-.31.97-.4.33-.09.67-.13,1-.13h4.81l-1.26,1.19c-.17.14-.29.23-.36.26-.07.03-.19.05-.36.05h-3.6c-.14,0-.29.05-.44.15-.15.1-.27.22-.35.36-.08.14-.1.26-.05.36.04.1.14.15.28.15h3.68c.28,0,.51.05.71.15.2.1.34.24.42.42.08.18.11.4.08.64-.03.25-.12.52-.29.83-.17.31-.38.59-.63.84-.25.25-.51.47-.8.65-.28.18-.58.32-.88.42-.31.1-.6.15-.87.15h-.02Z"/>
    </g>
    <path class="cls-1" d="M29.42,41.5s-.19-.13-.52-.35l-18.77-9.43-.08-.04c-.65-.36-1.49-.26-2.03.31-.55.58-.6,1.44-.18,2.08l.56.53,14.49,13.78c.93.89,2.41.85,3.3-.08l3.32-3.49c.89-.93.85-2.41-.08-3.3Z"/>
    <path class="cls-3" d="M7.52,30.54s.13-.19.35-.52l9.43-18.77.04-.08c.36-.65.26-1.49-.31-2.03-.58-.55-1.44-.6-2.08-.18l-.53.56L.64,24.01c-.89.93-.85,2.41.08,3.3l3.49,3.32c.93.89,2.41.85,3.3-.08Z"/>
    <path class="cls-2" d="M18.6,8.5s.19.13.52.35l18.77,9.43.08.04c.65.36,1.49.26,2.03-.31.55-.58.6-1.44.18-2.08l-.56-.53L25.14,1.63c-.93-.89-2.41-.85-3.3.08l-3.32,3.49c-.89.93-.85,2.41.08,3.3Z"/>
    <path class="cls-4" d="M40.5,19.46s-.13.19-.35.52l-9.43,18.77-.04.08c-.36.65-.26,1.49.31,2.03.58.55,1.44.6,2.08.18l.53-.56,13.78-14.49c.89-.93.85-2.41-.08-3.3l-3.49-3.32c-.93-.89-2.41-.85-3.3.08Z"/>
  </g>
  <g>
    <path class="cls-3" d="M56.18,19.24v11.52h-3.14v-11.52h3.14Z"/>
    <path class="cls-3" d="M56.18,19.24v11.52h-3.14v-11.52h3.14Z"/>
    <path class="cls-3" d="M67.49,28.1v-8.86h3.11v10.78c0,.21-.06.39-.19.53-.13.14-.28.22-.47.22h-4l-4.63-8.86v8.86h-3.11v-10.81c0-.21.06-.38.19-.52.13-.13.28-.2.47-.2h4l4.63,8.86Z"/>
    <path class="cls-3" d="M67.49,28.1v-8.86h3.11v10.78c0,.21-.06.39-.19.53-.13.14-.28.22-.47.22h-4l-4.63-8.86v8.86h-3.11v-10.81c0-.21.06-.38.19-.52.13-.13.28-.2.47-.2h4l4.63,8.86Z"/>
    <path class="cls-3" d="M82.4,30.76h-10l.96-2.06c.13-.27.24-.43.33-.49.08-.06.25-.09.51-.09h7.62c.24,0,.43-.09.59-.27.16-.18.24-.41.24-.67s-.08-.49-.24-.67c-.16-.18-.36-.27-.59-.27h-6.07c-.51,0-.98-.08-1.42-.23-.44-.15-.82-.38-1.15-.69-.33-.3-.59-.67-.77-1.1-.19-.43-.28-.92-.28-1.48s.09-1.05.28-1.48c.19-.43.44-.8.77-1.1.33-.31.71-.54,1.15-.69.44-.15.91-.23,1.42-.23h8.33l-.94,2.06c-.14.25-.25.4-.33.46-.08.06-.25.09-.51.09h-6.48c-.22,0-.4.09-.56.26-.15.17-.23.38-.23.63s.08.46.23.63c.15.17.34.26.56.26h6.6c.42,0,.83.09,1.21.26.39.17.72.42,1,.73.28.32.5.69.67,1.12.17.43.25.91.25,1.45s-.08,1.02-.25,1.46c-.17.44-.39.82-.67,1.13-.28.31-.61.56-1,.73-.39.17-.79.26-1.21.26h-.03Z"/>
    <path class="cls-3" d="M82.4,30.76h-10l.96-2.06c.13-.27.24-.43.33-.49.08-.06.25-.09.51-.09h7.62c.24,0,.43-.09.59-.27.16-.18.24-.41.24-.67s-.08-.49-.24-.67c-.16-.18-.36-.27-.59-.27h-6.07c-.51,0-.98-.08-1.42-.23-.44-.15-.82-.38-1.15-.69-.33-.3-.59-.67-.77-1.1-.19-.43-.28-.92-.28-1.48s.09-1.05.28-1.48c.19-.43.44-.8.77-1.1.33-.31.71-.54,1.15-.69.44-.15.91-.23,1.42-.23h8.33l-.94,2.06c-.14.25-.25.4-.33.46-.08.06-.25.09-.51.09h-6.48c-.22,0-.4.09-.56.26-.15.17-.23.38-.23.63s.08.46.23.63c.15.17.34.26.56.26h6.6c.42,0,.83.09,1.21.26.39.17.72.42,1,.73.28.32.5.69.67,1.12.17.43.25.91.25,1.45s-.08,1.02-.25,1.46c-.17.44-.39.82-.67,1.13-.28.31-.61.56-1,.73-.39.17-.79.26-1.21.26h-.03Z"/>
    <path class="cls-1" d="M109.97,18.75c2.11,0,3.67.57,4.67,1.71,1,1.14,1.51,2.65,1.51,4.54,0,.94-.12,1.79-.37,2.57-.24.77-.62,1.43-1.13,1.98-.51.54-1.15.96-1.92,1.26-.78.3-1.7.44-2.76.44s-1.98-.15-2.76-.44c-.78-.3-1.42-.72-1.92-1.26-.51-.55-.88-1.2-1.13-1.98-.25-.77-.37-1.63-.37-2.57,0-1.89.5-3.41,1.51-4.54,1-1.14,2.56-1.71,4.67-1.71ZM109.97,28.7c.44,0,.86-.05,1.25-.14.4-.1.75-.28,1.05-.54.3-.27.55-.64.73-1.12.19-.48.28-1.11.28-1.89s-.09-1.39-.28-1.88c-.19-.49-.43-.87-.73-1.15-.3-.28-.65-.46-1.05-.56-.4-.1-.81-.14-1.25-.14s-.86.05-1.25.14c-.4.1-.75.28-1.05.56-.3.28-.55.66-.73,1.15-.19.49-.28,1.11-.28,1.88s.09,1.41.28,1.89c.19.48.43.85.73,1.12.3.27.65.45,1.05.54.4.1.81.14,1.25.14Z"/>
    <path class="cls-1" d="M109.97,18.75c2.11,0,3.67.57,4.67,1.71,1,1.14,1.51,2.65,1.51,4.54,0,.94-.12,1.79-.37,2.57-.24.77-.62,1.43-1.13,1.98-.51.54-1.15.96-1.92,1.26-.78.3-1.7.44-2.76.44s-1.98-.15-2.76-.44c-.78-.3-1.42-.72-1.92-1.26-.51-.55-.88-1.2-1.13-1.98-.25-.77-.37-1.63-.37-2.57,0-1.89.5-3.41,1.51-4.54,1-1.14,2.56-1.71,4.67-1.71ZM109.97,28.7c.44,0,.86-.05,1.25-.14.4-.1.75-.28,1.05-.54.3-.27.55-.64.73-1.12.19-.48.28-1.11.28-1.89s-.09-1.39-.28-1.88c-.19-.49-.43-.87-.73-1.15-.3-.28-.65-.46-1.05-.56-.4-.1-.81-.14-1.25-.14s-.86.05-1.25.14c-.4.1-.75.28-1.05.56-.3.28-.55.66-.73,1.15-.19.49-.28,1.11-.28,1.88s.09,1.41.28,1.89c.19.48.43.85.73,1.12.3.27.65.45,1.05.54.4.1.81.14,1.25.14Z"/>
    <g>
      <path class="cls-1" d="M151.55,26.23c-.19,0-.34.07-.47.21-.13.14-.19.32-.19.53v3.78h-3.11v-11.52h12.15l-.94,2.04c-.14.25-.25.4-.33.46-.08.06-.25.09-.51.09h-6.6c-.19,0-.34.07-.47.22-.13.14-.19.32-.19.53v1.2h7.24l-.89,1.92c-.13.25-.24.4-.33.46-.08.06-.25.09-.51.09h-4.86Z"/>
      <path class="cls-1" d="M160,28.15l-.94,2.06c-.14.25-.25.4-.34.46-.09.06-.26.09-.49.09h-6.71l.94-2.06c.12-.25.22-.4.32-.46.09-.06.26-.09.49-.09h6.73Z"/>
    </g>
    <g>
      <path class="cls-1" d="M151.55,26.23c-.19,0-.34.07-.47.21-.13.14-.19.32-.19.53v3.78h-3.11v-11.52h12.15l-.94,2.04c-.14.25-.25.4-.33.46-.08.06-.25.09-.51.09h-6.6c-.19,0-.34.07-.47.22-.13.14-.19.32-.19.53v1.2h7.24l-.89,1.92c-.13.25-.24.4-.33.46-.08.06-.25.09-.51.09h-4.86Z"/>
      <path class="cls-1" d="M160,28.15l-.94,2.06c-.14.25-.25.4-.34.46-.09.06-.26.09-.49.09h-6.71l.94-2.06c.12-.25.22-.4.32-.46.09-.06.26-.09.49-.09h6.73Z"/>
    </g>
    <rect class="cls-1" x="127.73" y="23.63" width="11.52" height="2.73" transform="translate(158.49 -108.49) rotate(90)"/>
    <rect class="cls-1" x="127.73" y="23.63" width="11.52" height="2.73" transform="translate(158.49 -108.49) rotate(90)"/>
    <path class="cls-1" d="M139.91,28.15v-8.91h-2.73v11.52h7.21c.24,0,.4-.03.49-.09.09-.06.21-.21.34-.46l.94-2.06h-6.25Z"/>
    <path class="cls-1" d="M139.91,28.15v-8.91h-2.73v11.52h7.21c.24,0,.4-.03.49-.09.09-.06.21-.21.34-.46l.94-2.06h-6.25Z"/>
    <g>
      <path class="cls-1" d="M101.45,30.75,95.03,30.75l-5.1-11.52h3.11l2.79,6.69,2.5-6.69h3.11l-5.13,11.52"/>
      <g>
        <rect class="cls-1" x="95" y="23.63" width="11.53" height="2.73" transform="translate(125.77 -75.78) rotate(90)"/>
        <rect class="cls-1" x="84.85" y="23.63" width="11.53" height="2.73" transform="translate(115.61 -65.62) rotate(90)"/>
      </g>
    </g>
    <polygon class="cls-1" points="101.45 19.23 99.41 19.23 98.34 19.23 95.84 25.91 93.04 19.23 91.98 19.23 89.93 19.23 89.25 19.23 89.25 30.76 91.98 30.76 91.98 23.85 95.03 30.75 96.32 30.75 99.41 23.83 99.41 30.76 102.14 30.76 102.14 19.23 101.45 19.23"/>
    <path class="cls-1" d="M129.37,25c.07-.09.15-.17.21-.27.41-.58.61-1.25.61-1.99,0-.49-.09-.94-.28-1.36-.18-.42-.43-.79-.74-1.11-.31-.32-.68-.57-1.1-.75-.42-.19-.88-.28-1.35-.28h-8.92v11.52h8.92c.48,0,.93-.09,1.35-.28.42-.19.79-.44,1.1-.75.31-.32.56-.68.74-1.11.18-.42.28-.87.28-1.36,0-.75-.2-1.41-.61-1.99-.07-.1-.14-.18-.21-.27ZM126.92,28.17c-.24.25-.54.38-.91.38h-4.63c-.18,0-.32-.06-.44-.18-.12-.12-.18-.27-.18-.45v-5.83c0-.18.06-.33.18-.45.12-.12.27-.18.44-.18h4.63c.37,0,.67.13.91.38.24.25.36.56.36.91s-.12.66-.36.91c-.06.06-.12.11-.18.15-.21.15-.45.22-.73.22h-2.68c-.24,0-.4.03-.48.09-.08.06-.18.19-.31.4l-.25.49-.64,1.26h3.09s1.05,0,2-.07c.06.04.12.09.18.15.24.25.36.56.36.91s-.12.66-.36.91Z"/>
    <path class="cls-1" d="M129.37,25c.07-.09.15-.17.21-.27.41-.58.61-1.25.61-1.99,0-.49-.09-.94-.28-1.36-.18-.42-.43-.79-.74-1.11-.31-.32-.68-.57-1.1-.75-.42-.19-.88-.28-1.35-.28h-8.92v11.52h8.92c.48,0,.93-.09,1.35-.28.42-.19.79-.44,1.1-.75.31-.32.56-.68.74-1.11.18-.42.28-.87.28-1.36,0-.75-.2-1.41-.61-1.99-.07-.1-.14-.18-.21-.27ZM126.92,28.17c-.24.25-.54.38-.91.38h-4.63c-.18,0-.32-.06-.44-.18-.12-.12-.18-.27-.18-.45v-5.83c0-.18.06-.33.18-.45.12-.12.27-.18.44-.18h4.63c.37,0,.67.13.91.38.24.25.36.56.36.91s-.12.66-.36.91c-.06.06-.12.11-.18.15-.21.15-.45.22-.73.22h-2.68c-.24,0-.4.03-.48.09-.08.06-.18.19-.31.4l-.25.49-.64,1.26h3.09s1.05,0,2-.07c.06.04.12.09.18.15.24.25.36.56.36.91s-.12.66-.36.91Z"/>
  </g>
</svg>