<?xml version="1.0" encoding="UTF-8"?>
<svg id="_레이어_1" data-name="레이어 1" xmlns="http://www.w3.org/2000/svg" width="160" height="50" viewBox="0 0 160 50">
  <defs>
    <style>
      .cls-1 {
        fill: #231815;
      }

      .cls-1, .cls-2, .cls-3 {
        stroke-width: 0px;
      }

      .cls-2 {
        fill: #00b0aa;
      }

      .cls-3 {
        fill: #00a97b;
      }
    </style>
  </defs>
  <path class="cls-1" d="M49.68,31.17h-2.29l-6.19-8.15v8.15h-2.44v-12.21h2.28l6.2,8.15v-8.15h2.44v12.21ZM61.55,21.23h-3.79v9.93h-2.43v-9.93h-3.78v-2.28h10v2.28ZM75.41,25.06c0,3.65-2.66,6.33-6.42,6.33s-6.41-2.69-6.41-6.33,2.65-6.33,6.41-6.33,6.42,2.69,6.42,6.33ZM65.12,25.06c0,2.37,1.63,3.99,3.87,3.99s3.87-1.62,3.87-3.99-1.62-3.99-3.87-3.99-3.87,1.62-3.87,3.99ZM88.85,31.17h-2.29l-6.19-8.15v8.15h-2.44v-12.21h2.28l6.2,8.15v-8.15h2.44v12.21ZM102.47,24.18h-3.48v4.04c0,1.25.66,1.79,1.56,1.79.61,0,1.22-.24,1.69-.56l.67,1.07c-.64.46-1.47.82-2.49.82-1.8,0-2.87-.99-2.87-3.1v-4.06h-1.77v-1.3h1.77v-2.6h1.43v2.6h3.48v1.3ZM111.63,27c0,.18-.02.38-.03.53h-6.52c.2,1.72,1.4,2.56,2.82,2.56.97,0,1.85-.38,2.56-.99l.76.98c-1.03.96-2.18,1.26-3.4,1.26-2.46,0-4.2-1.74-4.2-4.32s1.74-4.32,4.12-4.32,3.88,1.75,3.9,4.29ZM105.11,26.38h5.07c-.17-1.47-1.12-2.41-2.47-2.41-1.47,0-2.38.99-2.6,2.41ZM115.2,31.17h-1.42v-12.56h1.42v12.56ZM125.36,27c0,.18-.02.38-.03.53h-6.52c.2,1.72,1.4,2.56,2.82,2.56.97,0,1.85-.38,2.56-.99l.76.98c-1.03.96-2.18,1.26-3.4,1.26-2.46,0-4.2-1.74-4.2-4.32s1.74-4.32,4.12-4.32,3.88,1.75,3.9,4.29ZM118.83,26.38h5.07c-.17-1.47-1.12-2.41-2.47-2.41-1.47,0-2.38.99-2.6,2.41ZM134.28,24.01l-.92.97c-.61-.59-1.32-.93-2.2-.93-1.6,0-2.81,1.24-2.81,2.97s1.21,2.98,2.81,2.98c.88,0,1.66-.39,2.23-.95l.88.99c-.75.85-1.85,1.3-3.08,1.3-2.56,0-4.3-1.86-4.3-4.32s1.74-4.32,4.3-4.32c1.23,0,2.34.45,3.08,1.31ZM144.14,27.02c0,2.46-1.88,4.32-4.39,4.32s-4.38-1.86-4.38-4.32,1.87-4.32,4.38-4.32,4.39,1.86,4.39,4.32ZM136.83,27.02c0,1.74,1.26,2.98,2.92,2.98s2.92-1.25,2.92-2.98-1.26-2.97-2.92-2.97-2.92,1.24-2.92,2.97ZM160,26.02v5.15h-1.43v-4.68c0-1.53-.84-2.42-2.28-2.42s-2.44.95-2.44,2.46v4.65h-1.43v-4.68c0-1.53-.84-2.42-2.28-2.42-1.33,0-2.45.92-2.45,2.46v4.65h-1.42v-8.29h1.41v1.08c.68-.93,1.75-1.26,2.71-1.26,1.4,0,2.51.63,3.06,1.67.68-1.26,1.96-1.67,3.09-1.67,2.05,0,3.45,1.33,3.45,3.31Z"/>
  <g>
    <path class="cls-2" d="M25.2,15.94l-1.94-1.89c-.33-.33-.81-.42-1.24-.24-.43.18-.7.58-.7,1.05v15.09c0,.48-.08.92-.25,1.29-.12.28-.27.51-.45.69-.18.18-.39.31-.64.39-.56.19-1.16.21-1.73.01-.15-.05-.43-.2-.88-.63l-7.83-7.52c-.33-.32-.81-.41-1.23-.23-.43.18-.69.58-.69,1.05v2.57c0,.4.16.78.45,1.06l6.33,6.2c.83.79,1.64,1.32,2.49,1.6.71.24,1.44.36,2.18.36.78,0,1.55-.12,2.28-.37.89-.3,1.67-.78,2.33-1.44.61-.61,1.1-1.37,1.45-2.25.34-.85.51-1.81.51-2.87v-12.86c0-.4-.16-.78-.45-1.06Z"/>
    <path class="cls-3" d="M17.57,21.36l-6.33-6.2c-.83-.79-1.64-1.32-2.49-1.6-1.46-.49-3.02-.47-4.46.01-.89.3-1.67.78-2.33,1.44-.61.61-1.1,1.37-1.45,2.25-.34.85-.51,1.81-.51,2.87v12.86c0,.4.16.78.45,1.06l1.94,1.89c.22.21.5.33.79.33.15,0,.3-.03.45-.09.43-.18.7-.58.7-1.05v-15.09c0-.48.08-.92.25-1.29.12-.28.27-.51.45-.69.18-.18.39-.31.64-.39.56-.19,1.16-.21,1.73-.01.15.05.43.2.88.63l7.25,6.96c.44.42,1.05.53,1.61.29.56-.24.9-.76.9-1.36v-1.77c0-.4-.16-.78-.45-1.06Z"/>
  </g>
</svg>