<?xml version="1.0" encoding="UTF-8"?>
<svg id="_레이어_1" data-name="레이어 1" xmlns="http://www.w3.org/2000/svg" width="160" height="50" viewBox="0 0 160 50">
  <defs>
    <style>
      .cls-1 {
        fill: #f39;
        stroke-width: 0px;
      }
    </style>
  </defs>
  <path class="cls-1" d="M19.23,15.04c-2.47-.23-4.83.81-6.34,2.72,0,0,0,0-.01,0-1.51-1.91-3.86-2.95-6.34-2.72-3.74.35-6.55,3.58-6.55,7.33v10.36s0,0,0,0h3.09s0,0,0,0v-10.39c0-2.23,1.73-4.14,3.96-4.22,2.34-.08,4.27,1.79,4.27,4.11v10.49s0,0,0,0h3.09s0,0,0,0v-10.39c0-2.23,1.73-4.14,3.96-4.22,2.34-.08,4.27,1.79,4.27,4.11v10.49s0,0,0,0h3.09s0,0,0,0v-10.36c0-3.75-2.81-6.98-6.55-7.33Z"/>
  <path class="cls-1" d="M157.87,9.52c-1.18,0-2.13.96-2.13,2.13s.96,2.13,2.13,2.13,2.13-.96,2.13-2.13-.96-2.13-2.13-2.13Z"/>
  <path class="cls-1" d="M120.06,9.52c-1.18,0-2.13.96-2.13,2.13s.96,2.13,2.13,2.13,2.13-.96,2.13-2.13-.96-2.13-2.13-2.13Z"/>
  <path class="cls-1" d="M35.63,15.37c-2.59,0-5.33.9-6.6,1.74h0c-.3.2-.38.61-.18.91l.99,1.49c.2.3.61.38.91.18h0c.87-.58,2.98-1.21,4.87-1.21,1.03,0,2.39.18,3.05,1.02.18.23.28.57.28.96v.5c0,.36-.29.66-.66.66h-4.54c-2.2,0-4.16,1.02-5.23,2.73-.98,1.55-1.09,3.45-.31,5.07,1.6,3.32,5.99,3.32,8.62,3.32,2.98,0,5.23-2.22,5.23-5.16v-7.11c0-1.09-.32-2.09-.94-2.87-1.14-1.46-3.04-2.23-5.49-2.23ZM38.29,24.72c.36,0,.66.29.66.66v2.2c0,1.19-.89,2.05-2.12,2.05-2.63,0-5.16-.19-5.82-1.56-.31-.65-.26-1.42.14-2.07.51-.81,1.46-1.28,2.6-1.28h4.54Z"/>
  <path class="cls-1" d="M57.18,19.51l.99-1.49c.2-.3.12-.71-.18-.91h0c-1.27-.84-4.01-1.74-6.6-1.74-2.45,0-4.35.77-5.49,2.23-.61.78-.94,1.77-.94,2.87v11.79c0,.36.29.66.66.66h1.79c.36,0,.66-.29.66-.66v-11.79c0-.38.1-.73.28-.96.66-.85,2.02-1.02,3.05-1.02,1.89,0,4,.63,4.87,1.21h0c.3.2.71.12.91-.18Z"/>
  <path class="cls-1" d="M103.8,17.59h0c-.61.78-.93,1.78-.93,2.87v11.79c0,.36.29.66.66.66h1.79c.36,0,.66-.29.66-.66v-11.79c0-.38.1-.73.28-.96.66-.85,2.02-1.02,3.05-1.02,1.89,0,4,.63,4.87,1.21h0c.3.2.71.12.91-.18l.99-1.49c.2-.3.12-.71-.18-.91h0c-1.27-.84-4.01-1.74-6.6-1.74-2.45,0-4.35.77-5.49,2.23Z"/>
  <path class="cls-1" d="M86.41,26.49c2.2,0,4.16-1.02,5.23-2.73.98-1.55,1.09-3.45.31-5.07-1.6-3.32-5.99-3.32-8.62-3.32-2.98,0-5.23,2.22-5.23,5.16v7.59c0,1.09.32,2.09.94,2.87,1.14,1.46,3.04,2.23,5.49,2.23,2.59,0,5.33-.9,6.6-1.74h0c.3-.2.39-.61.18-.91l-.99-1.49c-.2-.3-.61-.38-.91-.18h0c-.87.58-2.98,1.21-4.87,1.21-1.03,0-2.39-.18-3.05-1.02-.18-.22-.28-.57-.28-.96v-.97c0-.36.29-.66.66-.66h4.54ZM81.86,23.38c-.36,0-.66-.29-.66-.66v-2.2c0-1.19.89-2.05,2.12-2.05,2.63,0,5.16.19,5.82,1.56.31.65.26,1.42-.14,2.07-.51.81-1.46,1.28-2.6,1.28h-4.54Z"/>
  <path class="cls-1" d="M97.25,10.38h0c-.86,0-1.55.7-1.55,1.55v19.42c0,.86.7,1.55,1.55,1.55h0c.86,0,1.55-.7,1.55-1.55V11.93c0-.86-.7-1.55-1.55-1.55Z"/>
  <path class="cls-1" d="M132.09,15.01c-3.95.09-7.06,3.42-7.06,7.36v10.35s0,0,0,0h3.09s0,0,0,0v-10.39c0-2.23,1.73-4.14,3.96-4.22,2.34-.08,4.27,1.79,4.27,4.11v10.5s0,0,0,0h3.09s0,0,0,0v-10.5c0-4.04-3.33-7.31-7.39-7.22Z"/>
  <path class="cls-1" d="M120.13,32.91h0c.86,0,1.55-.7,1.55-1.55v-14.44c0-.86-.7-1.55-1.55-1.55h0c-.86,0-1.55.7-1.55,1.55v14.44c0,.86.7,1.55,1.55,1.55Z"/>
  <path class="cls-1" d="M149.96,15.02c-4.65-.18-8.49,3.54-8.49,8.15,0,2.03.27,3.47,1.68,4.99l.33.36.41-.27c.68-.45,1.31-.66,1.72-.76l1.1-.27-.86-.73c-1.11-.95-1.28-1.87-1.28-3.32,0-2.89,2.44-5.23,5.38-5.04,2.51.16,4.56,2.2,4.72,4.71.19,2.93-2.15,5.38-5.04,5.38-.15,0-.31,0-.47-.02-.17-.03-.34-.06-.53-.08l-.22-.02h-.14c-.1-.01-.21-.02-.31-.02-1,0-1.96.23-2.85.7-2.3,1.19-3.63,3.67-3.3,6.29.38,3.05,3.01,5.38,6.08,5.42,3.45.04,6.27-2.76,6.27-6.2,0-.94-.12-1.37-.58-2.26l-.24-.47-.49.19c-.58.23-1.2.37-1.82.39l-1.06.05.61.86c.37.53.51,1.08.51,1.69,0,1.82-1.64,2.82-3.5,2.61-1.42-.16-2.56-1.3-2.72-2.72-.21-1.86,1.25-3.45,3.07-3.45.08,0,.15,0,.23,0,.17.03.34.06.5.08h.08c.3.04.59.06.87.06.81,0,1.62-.12,2.4-.36,3.5-1.08,5.83-4.29,5.76-7.96-.08-4.28-3.55-7.82-7.83-7.99Z"/>
  <path class="cls-1" d="M77.81,12.75c0-1.31-1.06-2.37-2.37-2.37-.97,0-1.81.59-2.17,1.42h0s-6.04,13.69-6.04,13.69c-.16.37-.69.37-.85,0l-4.02-9.2c-.25-.57-.81-.93-1.42-.93-1.12,0-1.87,1.15-1.42,2.18l5.65,12.92h0s.76,1.74.76,1.74c.25.57.81.93,1.42.93h.67c.62,0,1.17-.36,1.42-.93l8.18-18.53h0c.12-.29.19-.6.19-.93Z"/>
</svg>