<?xml version="1.0" encoding="UTF-8"?>
<svg id="_레이어_1" data-name="레이어 1" xmlns="http://www.w3.org/2000/svg" width="160" height="50" viewBox="0 0 160 50">
  <defs>
    <style>
      .cls-1 {
        fill: #182987;
      }

      .cls-1, .cls-2, .cls-3, .cls-4 {
        stroke-width: 0px;
      }

      .cls-2 {
        fill: #ec6c00;
      }

      .cls-3 {
        fill: #c30e18;
      }

      .cls-4 {
        fill: #9e9e9f;
      }
    </style>
  </defs>
  <g>
    <path class="cls-1" d="M61.14,21.77h-13.53c-4.22,0-6.77-3.52-6.77-7.15s2.55-7.54,6.77-7.54h13.53c4.21,0,6.77,3.94,6.77,7.54s-2.67,7.15-6.77,7.15ZM40.84,31.09v-4.72h10.44v-3.56h6.19v3.56h10.33v4.72h-26.95ZM41.46,43.54v-10.56h6.23v5.84c11.45-.23,19.49-3.6,19.49-3.6v5.22s-7.5,3.09-25.71,3.09ZM60.4,16.94c2.09,0,2.09-5.07,0-5.07h-12.07c-2.01,0-1.93,5.07,0,5.07h12.07Z"/>
    <path class="cls-1" d="M81.43,31.9v-4.29h-10.44v-4.72h27.07v4.72h-10.44v4.29h-6.19ZM91.1,43.54v-6.03h-19.37v-4.76h25.6v10.79h-6.22ZM96.05,21.54h-6.15c.46-2.2,1.01-4.83,1.01-7.58v-2.2h-18.99v-4.72h25.21v6.38c0,1.47-.35,5.49-1.08,8.12Z"/>
    <path class="cls-1" d="M100.76,29.43V7.08h18.99v22.35h-18.99ZM102.39,43.54v-11.83h6.23v7.12c11.99-.19,20.84-3.56,20.84-3.56v5.18s-7.69,3.09-27.07,3.09ZM113.52,11.95h-6.57v12.57h6.57v-12.57ZM122.5,31.44V6.46h6.22v24.98h-6.22Z"/>
    <path class="cls-1" d="M132.93,31.48v-4.76h10.44v-3.36h6.19v3.36h10.44v4.76h-27.07ZM133.28,22.47v-4.76h4.33l-.5-4.83h6.23l.5,4.83h5.3l.54-4.83h6.22l-.54,4.83h4.29v4.76h-26.37ZM133.67,11.76v-4.72h25.6v4.72h-25.6ZM133.67,43.54v-10.17h6.23v5.45c11.33-.23,19.37-3.6,19.37-3.6v5.22s-7.5,3.09-25.6,3.09Z"/>
  </g>
  <g>
    <path class="cls-3" d="M25.79,28.16c-.73.2-1.95,2.23-2.9,2.46-.79.19-1.99,0-2.85,1.61-.79,1.49-2.47,2.04-2.88,3.23-.24.71.26,1.22,1.16.96.62-.18,1.81-1.64,2.48-2.53.31,1.06.62,3.05-.71,4.77-1.92,2.47-4.79,2.5-6.22,1.63-1.53-.94-2.99-4.53-.52-9.47.96-2.67,6.4-5.28,7.29-6.49.74-1-.21-2.01-1.63-1.29-1.78.91-3.39,2.48-6.07,4.22-.56.36-1.1.13-1.16-.5-.05-.63-.76-6.68-.76-6.68,0,0-.09-.81-.98-.7-.33.04-.77.27-.71.89.09.87.63,6.22.52,7.24-.11,1-.97,5.66-.8,7.96.17,2.29,1.45,5.34,5.49,6.36,4.04,1.02,8.42-2.18,9.18-5.43.76-3.25-.23-4.56-.23-4.56,0,0,2.53-1.74,3.05-2.24.74-.7-.03-1.63-.76-1.42Z"/>
    <path class="cls-3" d="M15.69,23.38c-.26.86-1.14,1.36-1.95,1.12-.82-.25-1.27-1.15-1-2.01.26-.86,1.14-1.36,1.95-1.12.82.25,1.26,1.15,1,2.01Z"/>
    <path class="cls-3" d="M21.5,29.17c0,.8-.65,1.46-1.46,1.46s-1.46-.65-1.46-1.46.65-1.46,1.46-1.46,1.46.65,1.46,1.46Z"/>
    <path class="cls-3" d="M25.04,15.54c0,1.05-.85,1.91-1.91,1.91s-1.91-.85-1.91-1.91.85-1.91,1.91-1.91,1.91.85,1.91,1.91Z"/>
    <path class="cls-3" d="M12.54,15.54c0,.97-.79,1.75-1.75,1.75s-1.75-.79-1.75-1.75.78-1.75,1.75-1.75,1.75.78,1.75,1.75Z"/>
  </g>
  <g>
    <path class="cls-4" d="M28.97,14.42c-.97-.5-2.09.83-.29,1.83,3.01,1.68,3.57,5.23,1.57,6.51-2.01,1.29-5.44-2.37-6.14-3.41-.97-1.44-3.04-.45-2.2,1.19.84,1.63,10.17,4.29,7.23,12.07-2.64,6.98-8.99,9.11-13.44,9.06-.05.06-.1.12-.15.17-.02.03-.04.06-.07.09,0,0-.02.01-.02.02,1.84.11,4.18-.09,7.06-1.02,3.73-1.2,7.85-4.23,9.65-8.59,4.57-11.04-2.42-17.54-3.19-17.94Z"/>
    <path class="cls-4" d="M29.87,19.95c0,.74-.6,1.34-1.34,1.34s-1.34-.6-1.34-1.34.6-1.34,1.34-1.34,1.34.6,1.34,1.34Z"/>
    <path class="cls-4" d="M7.08,16.88c0,1.21-.98,2.19-2.19,2.19s-2.19-.98-2.19-2.19.98-2.19,2.19-2.19,2.19.98,2.19,2.19Z"/>
    <path class="cls-4" d="M27.02,12.54c0,.57-.46,1.02-1.02,1.02s-1.02-.46-1.02-1.02.46-1.02,1.02-1.02,1.02.46,1.02,1.02Z"/>
    <path class="cls-4" d="M16.81,10.43c0,1-.81,1.81-1.81,1.81s-1.81-.81-1.81-1.81.81-1.81,1.81-1.81,1.81.81,1.81,1.81Z"/>
  </g>
  <g>
    <path class="cls-2" d="M12.05,40.74l2.16.52.96.68s-9.83-.05-13.6-9.27c-.68-1.67-1.15-3.19-1.35-4.42-.99-6.12,1.53-8.12,2.48-8.25.99-.14,1.46,1.01.53,1.86-1.17,1.08-2.13,2.92-.77,4.31,1.39,1.42,4.04-.74,5.23-.95.54-.1,1,.5.6.96-.28.33-.91.7-2.29,1.31-4.44,1.98-1.77,10.85,6.05,13.24Z"/>
    <path class="cls-2" d="M5.73,24.19c0,.69-.56,1.25-1.25,1.25s-1.25-.56-1.25-1.25.56-1.25,1.25-1.25,1.25.56,1.25,1.25Z"/>
    <path class="cls-2" d="M19.28,17.45c0,1.57-1.27,2.84-2.84,2.84s-2.84-1.27-2.84-2.84,1.27-2.84,2.84-2.84,2.84,1.27,2.84,2.84Z"/>
    <path class="cls-2" d="M10.06,11.92c0,.68-.55,1.23-1.23,1.23s-1.24-.55-1.24-1.23.55-1.24,1.24-1.24,1.23.55,1.23,1.24Z"/>
    <path class="cls-2" d="M25.17,25.84c0,.91-.73,1.64-1.64,1.64s-1.64-.73-1.64-1.64.73-1.64,1.64-1.64,1.64.73,1.64,1.64Z"/>
    <path class="cls-2" d="M22.81,10.61c0,.72-.58,1.31-1.31,1.31s-1.31-.59-1.31-1.31.58-1.31,1.31-1.31,1.31.59,1.31,1.31Z"/>
  </g>
</svg>