<?xml version="1.0" encoding="UTF-8"?>
<svg id="_레이어_1" data-name="레이어 1" xmlns="http://www.w3.org/2000/svg" width="160" height="50" viewBox="0 0 160 50">
  <defs>
    <style>
      .cls-1 {
        fill: #cc126a;
      }

      .cls-1, .cls-2 {
        stroke-width: 0px;
      }

      .cls-2 {
        fill: #191a1a;
      }
    </style>
  </defs>
  <g>
    <path class="cls-2" d="M107.81,49.88v-8.12l-4.29,8.12h-2.05l-4.29-8.12v8.12h-2.09v-11.04h2.57l4.91,8.8,4.94-8.8h2.4v11.04h-2.1Z"/>
    <path class="cls-2" d="M115.68,49.88c-2.87,0-3.94-.4-3.94-2.52v-3.16c0-2.07,1.07-2.52,3.94-2.52h4.59c2.87,0,3.94.45,3.94,2.52v3.16c0,2.12-1.07,2.52-3.94,2.52h-4.59ZM119.99,48.31c1.44,0,1.94-.2,1.94-1.3v-2.44c0-1.02-.55-1.32-1.94-1.32h-4.02c-1.4,0-1.94.3-1.94,1.32v2.44c0,1.1.48,1.3,1.94,1.3h4.02Z"/>
    <path class="cls-2" d="M126.02,49.88v-11.04h2.29v2.84h5.86c2.79,0,3.91.45,3.91,2.52v3.16c0,2.1-1,2.52-3.91,2.52h-8.15ZM135.79,44.62c0-1.07-.57-1.37-2-1.37h-5.48v5.06h5.48c1.5,0,2-.25,2-1.3v-2.39Z"/>
    <path class="cls-2" d="M139.79,49.88v-8.2h2.3v8.2h-2.3ZM139.86,40.53v-2.04h2.22v2.04h-2.22Z"/>
    <path class="cls-2" d="M143.9,49.88v-11.04h2.27v11.04h-2.27Z"/>
    <path class="cls-2" d="M151.82,49.88c-2.76,0-3.89-.72-3.89-2.91v-2.79c0-1.77,1.22-2.5,3.62-2.5h5.66c2.04,0,2.79.68,2.79,2.17v.77c0,1.55-.55,1.95-2.47,1.95h-7.36v.28c0,1.22.58,1.57,2.24,1.57h7.11v1.45h-7.7ZM156.49,45.57c.97,0,1.29-.2,1.29-.94v-.42c0-.73-.4-1.07-1.44-1.07h-4.46c-1.14,0-1.72.37-1.72,1.24v1.19h6.33Z"/>
  </g>
  <g>
    <path class="cls-2" d="M47.48,36.06v-8.46h-9.83v8.46h-8.7V13.43h8.7v8.42h9.83v-8.42h8.66v22.63h-8.66Z"/>
    <path class="cls-2" d="M59.43,36.06V13.43h8.63v22.63h-8.63Z"/>
    <path class="cls-2" d="M89.59,36.06l-10.03-10.85v10.85h-8.22V13.43h8.9l9.59,11.5v-11.5h8.25v22.63h-8.49Z"/>
    <path class="cls-2" d="M109.92,36.06c-6.61,0-8.7-1.03-8.7-5.41v-11.81c0-4.31,2.05-5.41,8.7-5.41h18.42v5.75h-15.95c-2.16,0-2.57.41-2.57,1.57v8.01c0,1.13.51,1.54,2.57,1.54h7.63v-2.81h-7.57v-5.65h15.89v1.22c0,7.17-5.81,12.98-12.98,12.98h-5.43Z"/>
    <path class="cls-2" d="M140.15,36.06c-6.5,0-8.7-.96-8.7-5.41V13.43h8.66v15.34c0,1.2.51,1.54,2.53,1.54h6.23c2.02,0,2.5-.34,2.5-1.54v-15.34h8.59v17.22c0,4.42-2.12,5.41-8.63,5.41h-11.19Z"/>
    <g>
      <circle class="cls-1" cx="20.19" cy="4.96" r="4.84"/>
      <path class="cls-1" d="M18.49,28.15c-2.89,1.45-5.54,1.96-7.33,2.16-1.64,0-2.47-.51-2.47-1.54v-8.05c0-1.03.65-1.54,2.47-1.54h11.55v-5.75h-14.01c-6.5,0-8.7.99-8.7,5.41v11.81c0,4.45,2.19,5.41,8.7,5.41h4.65c7.03,0,12.72-5.71,12.71-12.74v-1.47c-1.22,1.6-3.63,4.33-7.57,6.3Z"/>
    </g>
  </g>
</svg>