<?xml version="1.0" encoding="UTF-8"?>
<svg id="_레이어_1" data-name="레이어 1" xmlns="http://www.w3.org/2000/svg" width="160" height="50" viewBox="0 0 160 50">
  <defs>
    <style>
      .cls-1 {
        fill: #231815;
      }

      .cls-1, .cls-2, .cls-3 {
        stroke-width: 0px;
      }

      .cls-2 {
        fill: #000;
      }

      .cls-3 {
        fill: #c53329;
      }
    </style>
  </defs>
  <g>
    <path class="cls-1" d="M43.06,43.76l.16-.49c.33.22.88.35,1.36.35.73,0,1.17-.34,1.17-.89,0-.51-.28-.74-.88-.91l-.51-.14c-.68-.19-1.21-.59-1.21-1.36s.6-1.31,1.63-1.31c.63,0,1.12.15,1.43.33l-.19.47c-.29-.17-.7-.3-1.25-.3-.62,0-1.01.29-1.01.75s.32.72.86.88l.49.14c.79.23,1.26.56,1.26,1.39s-.69,1.44-1.76,1.44c-.61,0-1.22-.16-1.55-.37Z"/>
    <path class="cls-1" d="M52.58,39.1h.61v4.94h-.61v-4.94Z"/>
    <path class="cls-1" d="M60.48,44.03l-1.25-4.93h.63l1.01,4.06h0c.35-1.35.7-2.71,1.05-4.06h.65l1.01,4.06,1.02-4.06h.58l-1.25,4.93h-.67l-1.03-3.99h0c-.34,1.34-.7,2.67-1.04,3.99h-.7Z"/>
    <path class="cls-1" d="M70.96,41.57c0-1.64.97-2.55,2.24-2.55s2.2.87,2.2,2.56-.98,2.55-2.23,2.55-2.21-.87-2.21-2.55ZM74.77,41.62c0-1.34-.61-2.11-1.6-2.12-.92,0-1.58.77-1.58,2.01,0,1.35.57,2.14,1.6,2.14.93,0,1.58-.78,1.58-2.03Z"/>
    <path class="cls-1" d="M81.52,39.1h.61v4.47h2.55v.47h-3.16v-4.93Z"/>
    <path class="cls-1" d="M99.39,39.58h-1.63v-.48h3.84v.48h-1.61v4.46h-.61v-4.46Z"/>
    <path class="cls-1" d="M107.63,39.1h3.04v.48h-2.44v1.67h2.12v.49h-2.12v1.81h2.48v.49h-3.08v-4.94Z"/>
    <path class="cls-1" d="M116.9,39.1h.61v4.47h2.55v.47h-3.16v-4.93Z"/>
    <path class="cls-1" d="M126.15,39.1h3.04v.48h-2.44v1.67h2.12v.49h-2.12v1.81h2.48v.49h-3.08v-4.94Z"/>
    <path class="cls-1" d="M135.11,41.56c0-1.81,1.11-2.55,2.27-2.55.6,0,1.11.13,1.4.29l-.15.47c-.33-.16-.76-.26-1.26-.26-.83,0-1.62.58-1.62,1.99s.65,2.12,1.64,2.12c.56,0,1.03-.16,1.37-.31l.14.47c-.33.19-.93.33-1.58.33-1.23,0-2.21-.85-2.21-2.56Z"/>
    <path class="cls-1" d="M144.8,41.57c0-1.64.97-2.55,2.24-2.55s2.2.87,2.2,2.56-.98,2.55-2.23,2.55-2.21-.87-2.21-2.55ZM148.6,41.62c0-1.34-.61-2.11-1.6-2.12-.92,0-1.58.77-1.58,2.01,0,1.35.57,2.14,1.6,2.14.93,0,1.58-.78,1.58-2.03Z"/>
    <path class="cls-1" d="M155.41,39.1h.9l1.4,4.17,1.43-4.17h.86v4.93h-.58v-4.19h0c-.47,1.4-.94,2.8-1.41,4.19h-.63l-1.4-4.19h0v4.19h-.56v-4.93Z"/>
  </g>
  <g>
    <path class="cls-1" d="M53.55,17.24c.5,1.4,1.21,2.64,2.15,3.72.94,1.09,2.04,1.9,3.3,2.44l-1.75,2.36c-1.35-.63-2.53-1.54-3.53-2.74-1-1.2-1.79-2.61-2.36-4.21-.56,1.73-1.35,3.25-2.38,4.56-1.03,1.3-2.26,2.29-3.68,2.95l-1.8-2.46c1.29-.56,2.42-1.41,3.37-2.53.95-1.13,1.68-2.42,2.19-3.88.51-1.46.76-2.97.77-4.52v-3.84h2.98v3.84c0,1.47.24,2.9.74,4.3ZM60.74,7.17h2.97v24.02h-2.97V7.17Z"/>
    <path class="cls-1" d="M68.27,15.83c2.75,0,5.32-.04,7.72-.11,2.39-.07,4.66-.22,6.82-.43l.16,1.86c-1.91.26-4.13.46-6.66.6v3.46h-2.93v-3.35c-1.22.03-2.63.05-4.22.05h-1.61l-.33-2.07h1.06ZM69.67,9.28c.5-.54,1.2-.96,2.12-1.26.91-.3,1.97-.45,3.17-.45s2.23.15,3.13.45c.91.3,1.61.72,2.12,1.26.5.54.76,1.18.76,1.9,0,.73-.26,1.37-.76,1.91-.5.54-1.21.96-2.11,1.24s-1.95.43-3.14.43-2.27-.14-3.18-.43c-.91-.29-1.61-.7-2.11-1.24-.5-.54-.75-1.18-.75-1.91s.25-1.35.75-1.9ZM70.73,21.92h16.64v5.39h-13.64v1.54h14.28v2.09h-17.18v-5.56h13.6v-1.44h-13.7v-2.02ZM72.1,12.04c.26.25.64.44,1.13.57.49.13,1.07.2,1.73.2s1.23-.07,1.72-.2c.49-.13.86-.32,1.13-.57.27-.25.4-.54.4-.87s-.13-.62-.4-.87c-.27-.25-.64-.44-1.13-.58-.49-.13-1.06-.2-1.72-.2s-1.24.07-1.73.2c-.49.13-.87.33-1.13.58-.26.25-.39.54-.38.87,0,.33.12.62.38.87ZM87.36,21.16h-2.96v-.96h-4.49v-1.81h4.49V7.19h2.96v13.97Z"/>
    <path class="cls-1" d="M100.88,10.85h-6.34v1.88h5.43v2.23h-5.43v2.03c1.49,0,2.79-.05,3.89-.12s2.23-.21,3.37-.41l.29,2.27c-1.39.23-2.73.38-4.03.46s-2.87.13-4.69.13h-1.61v-10.76h9.13v2.29ZM95.01,20.9h16.24v6.01h-13.27v1.74h14.12v2.29h-17.06v-6.16h13.29v-1.57h-13.32v-2.31ZM101.02,12.38h2.7v-4.79h2.81v12.2h-2.81v-5.09h-2.7v-2.33ZM108.45,7.19h2.81v12.79h-2.81V7.19Z"/>
    <path class="cls-1" d="M123.46,18.47h-5.66v4.49c1.41-.01,2.7-.06,3.88-.15,1.18-.08,2.39-.24,3.65-.46l.24,2.4c-1.47.27-2.88.45-4.23.53-1.35.08-2.92.13-4.72.14h-1.67v-9.3h5.67v-4.1h-5.7v-2.36h8.54v8.81ZM124.52,15.51h2.65v-7.83h2.77v22.26h-2.77v-12.04h-2.65v-2.39ZM132.07,7.17h2.8v23.96h-2.8V7.17Z"/>
    <path class="cls-1" d="M137.78,18.44h8.38v-2.8h2.97v2.8h10.42v2.35h-21.77v-2.35ZM157.04,9.78c0,.95-.02,1.76-.04,2.43-.02.67-.07,1.43-.15,2.3-.08.87-.21,1.77-.39,2.73l-2.96-.14c.19-.99.33-1.98.42-2.96l-13.91.64-.38-2.42,14.42-.35c.01-.55.02-.95.02-1.21v-.6s-13.8,0-13.8,0v-2.35h16.77v1.94ZM140.33,22.72h16.55v8.13h-16.55v-8.13ZM153.97,28.47v-3.44h-10.75v3.44h10.75Z"/>
  </g>
  <path class="cls-2" d="M11.51,5.74C5.24,5.74.12,8,.12,14.27v2.83c0,2.91,1.03,6.56,6.73,8.74,7.34,2.83,7.55,3.04,7.55,7.67v.86c0,.12,0,.23-.02.34h0s-.84,8-10.77,7.79c2.04,1.23,4.78,1.75,7.79,1.75,6.28,0,11.61-2.26,11.61-8.53v-2.21c0-6.89,0-9.56-10.34-13.29-3.2-1.11-3.94-1.85-3.94-3.12v-1.68c0-1.59,1.18-2.25,2.77-2.26l26.26-.06,7.78-7.37H11.51Z"/>
  <polygon class="cls-3" points="30.4 44.26 37.76 39.25 37.76 13.13 30.4 20.19 30.4 44.26"/>
  <path class="cls-3" d="M14.38,34.71h0c-.16,1.38-1.29,2.12-2.77,2.12-1.6,0-2.79-.86-2.79-2.46v-4.18L0,26.14v9.58c0,3.27,1.39,5.44,3.61,6.78,9.92.2,10.77-7.79,10.77-7.79Z"/>
</svg>