<?xml version="1.0" encoding="UTF-8"?>
<svg id="_레이어_1" data-name="레이어 1" xmlns="http://www.w3.org/2000/svg" width="160" height="50" viewBox="0 0 160 50">
  <defs>
    <style>
      .cls-1 {
        fill: #bf3752;
      }

      .cls-1, .cls-2 {
        stroke-width: 0px;
      }

      .cls-2 {
        fill: #4a4949;
      }
    </style>
  </defs>
  <g>
    <path class="cls-2" d="M62.17,27.26c-.82,0-1.57-.15-2.27-.46-.72-.28-1.31-.7-1.83-1.21-.54-.52-.95-1.11-1.24-1.83-.31-.67-.46-1.42-.46-2.24,0-.77.15-1.52.46-2.24.28-.67.7-1.29,1.24-1.8.51-.51,1.11-.93,1.83-1.24.7-.28,1.44-.44,2.27-.44.77,0,1.54.15,2.26.44.7.31,1.31.72,1.85,1.24.51.51.93,1.13,1.24,1.8.28.72.44,1.47.44,2.24,0,.82-.15,1.57-.44,2.24-.31.72-.72,1.31-1.24,1.83-.54.51-1.16.93-1.85,1.21-.72.31-1.49.46-2.26.46ZM62.17,18.22c-.46,0-.88.1-1.26.26-.41.18-.75.41-1.06.7-.31.33-.54.69-.7,1.08-.18.41-.26.82-.26,1.26,0,.46.08.9.26,1.29.15.41.39.75.7,1.03.31.33.64.59,1.06.75.39.18.8.26,1.26.26.44,0,.87-.08,1.29-.26.39-.15.72-.41,1.03-.75.31-.28.54-.62.72-1.03.15-.39.26-.82.26-1.29,0-.44-.1-.85-.26-1.26-.18-.39-.41-.75-.72-1.08-.31-.28-.64-.52-1.03-.7-.41-.15-.85-.26-1.29-.26ZM65.8,35.16h9.88v2.11h-12.48v-5.74h8.52v-1.54h-7.8v-2.09h10.45v5.71h-8.57v1.54ZM74.14,19.3h3.68v2.57h-3.68v4.4h-2.68v-12.02h2.68v5.04Z"/>
    <path class="cls-2" d="M96.88,24.14v2.37h-18.09v-2.37h18.09ZM87.64,15.21h6.92v2.37h-4.5v2.6h5.2v2.29h-14.85v-7.9h7.23v.64ZM95.33,37.27h-13.87v-5.61h9.88v-1.39h-9.22v-2.08h11.92v5.53h-9.91v1.49h11.2v2.06ZM82.92,16.93v3.24h4.58v-3.24h-4.58Z"/>
    <path class="cls-2" d="M116.88,32.89h-18.09v-2.32h7.72v-3.68h-5.46v-10.35h13.57v10.35h-5.46v3.68h7.72v2.32ZM112.07,24.4v-5.35h-8.49v5.35h8.49Z"/>
    <path class="cls-2" d="M127.28,18.68h2.44v13.74h-10.6v-14.72h2.47v5.43h5.69v-4.45ZM127.28,25.43h-5.69v4.71h5.69v-4.71ZM136.65,22.08h3.66v2.57h-3.66v8.24h-2.68V14.26h2.68v7.83Z"/>
    <path class="cls-2" d="M147.05,26.92c-.82,0-1.57-.15-2.27-.46-.72-.28-1.31-.69-1.83-1.21-.54-.51-.95-1.11-1.24-1.83-.31-.67-.46-1.42-.46-2.21s.15-1.52.46-2.24c.28-.69.7-1.31,1.24-1.83.51-.52,1.11-.93,1.83-1.24.7-.28,1.44-.44,2.27-.44.77,0,1.54.15,2.26.44.7.31,1.31.72,1.85,1.24.51.51.93,1.13,1.24,1.83.28.72.44,1.47.44,2.24s-.15,1.54-.44,2.21c-.31.72-.72,1.31-1.24,1.83-.54.52-1.16.93-1.85,1.21-.72.31-1.49.46-2.26.46ZM147.05,17.89c-.46,0-.88.1-1.26.26-.41.18-.75.41-1.06.72-.31.31-.54.67-.7,1.06-.18.41-.26.85-.26,1.29,0,.46.08.88.26,1.26.15.41.39.75.7,1.06.31.33.64.59,1.06.75.39.18.8.26,1.26.26.44,0,.88-.08,1.29-.26.39-.15.72-.41,1.03-.75.31-.31.54-.64.72-1.06.15-.39.26-.8.26-1.26,0-.44-.1-.88-.26-1.29-.18-.39-.41-.75-.72-1.06-.31-.31-.64-.54-1.03-.72-.41-.15-.85-.26-1.29-.26ZM150.14,35.16h9.86v2.11h-12.46v-5.74h8.52v-1.54h-7.82v-2.09h10.43v5.71h-8.52v1.54ZM156.68,14.26h2.63v12.02h-2.63v-12.02Z"/>
  </g>
  <g>
    <g>
      <path class="cls-1" d="M24.59,28.9c-.45,0-.82-.36-.82-.82V5.84c0-.45.37-.82.82-.82s.82.37.82.82v22.25c0,.45-.37.82-.82.82Z"/>
      <path class="cls-1" d="M24.59,16.1H8.52c-.45,0-.82-.37-.82-.82s.37-.82.82-.82h16.07c.45,0,.82.37.82.82s-.37.82-.82.82Z"/>
      <path class="cls-1" d="M24.59,6.66H8.52c-.45,0-.82-.37-.82-.82s.37-.82.82-.82h16.07c.45,0,.82.37.82.82s-.37.82-.82.82Z"/>
      <path class="cls-1" d="M3.8,14.37c-2.1,0-3.8-1.71-3.8-3.8s1.71-3.8,3.8-3.8,3.8,1.71,3.8,3.8-1.71,3.8-3.8,3.8ZM3.8,8.39c-1.2,0-2.17.98-2.17,2.17s.98,2.17,2.17,2.17,2.17-.97,2.17-2.17-.97-2.17-2.17-2.17Z"/>
    </g>
    <path class="cls-1" d="M46.84,28.9h-22.25c-.45,0-.82-.36-.82-.82s.37-.82.82-.82h22.25c.45,0,.82.36.82.82s-.37.82-.82.82Z"/>
    <path class="cls-1" d="M37.4,44.98c-.45,0-.82-.36-.82-.82v-16.07c0-.45.37-.82.82-.82s.82.36.82.82v16.07c0,.45-.37.82-.82.82Z"/>
    <path class="cls-1" d="M46.84,44.98c-.45,0-.82-.36-.82-.82v-16.07c0-.45.37-.82.82-.82s.82.36.82.82v16.07c0,.45-.37.82-.82.82Z"/>
    <path class="cls-1" d="M42.12,24.27c-2.1,0-3.8-1.71-3.8-3.8s1.71-3.8,3.8-3.8,3.8,1.71,3.8,3.8-1.71,3.8-3.8,3.8ZM42.12,18.29c-1.2,0-2.17.97-2.17,2.17s.98,2.17,2.17,2.17,2.17-.97,2.17-2.17-.97-2.17-2.17-2.17Z"/>
  </g>
</svg>